<mxfile host="app.diagrams.net" agent="Mozilla/5.0 (Windows NT 10.0; Win64; x64) AppleWebKit/537.36 (KHTML, like Gecko) Chrome/137.0.0.0 Safari/537.36" version="27.1.6">
  <diagram name="第 1 页" id="iNVu3DF28BnVYyFf7vwv">
    <mxGraphModel dx="983" dy="522" grid="1" gridSize="10" guides="1" tooltips="1" connect="1" arrows="1" fold="1" page="1" pageScale="1" pageWidth="827" pageHeight="1169" math="0" shadow="0">
      <root>
        <mxCell id="0" />
        <mxCell id="1" parent="0" />
        <mxCell id="7f0Ti8RrvrPzGYqnDvZj-1" style="edgeStyle=orthogonalEdgeStyle;rounded=0;orthogonalLoop=1;jettySize=auto;html=1;strokeWidth=6;" edge="1" parent="1" source="Ffa4UPVfKfl7aQGAIxgg-1" target="Ffa4UPVfKfl7aQGAIxgg-2">
          <mxGeometry relative="1" as="geometry" />
        </mxCell>
        <mxCell id="Ffa4UPVfKfl7aQGAIxgg-1" value="&lt;font style=&quot;font-size: 24px;&quot;&gt;文獻回顧&lt;/font&gt;" style="rounded=1;whiteSpace=wrap;html=1;" parent="1" vertex="1">
          <mxGeometry x="270" width="236" height="60" as="geometry" />
        </mxCell>
        <mxCell id="7f0Ti8RrvrPzGYqnDvZj-2" style="edgeStyle=orthogonalEdgeStyle;rounded=0;orthogonalLoop=1;jettySize=auto;html=1;strokeWidth=6;" edge="1" parent="1" source="Ffa4UPVfKfl7aQGAIxgg-2" target="Ffa4UPVfKfl7aQGAIxgg-3">
          <mxGeometry relative="1" as="geometry" />
        </mxCell>
        <mxCell id="Ffa4UPVfKfl7aQGAIxgg-2" value="&lt;font style=&quot;font-size: 24px;&quot;&gt;釐清管理規則與需求&lt;/font&gt;" style="rounded=1;whiteSpace=wrap;html=1;" parent="1" vertex="1">
          <mxGeometry x="270" y="100" width="236" height="60" as="geometry" />
        </mxCell>
        <mxCell id="7f0Ti8RrvrPzGYqnDvZj-3" style="edgeStyle=orthogonalEdgeStyle;rounded=0;orthogonalLoop=1;jettySize=auto;html=1;strokeWidth=6;" edge="1" parent="1" source="Ffa4UPVfKfl7aQGAIxgg-3" target="Ffa4UPVfKfl7aQGAIxgg-4">
          <mxGeometry relative="1" as="geometry" />
        </mxCell>
        <mxCell id="Ffa4UPVfKfl7aQGAIxgg-3" value="&lt;font style=&quot;font-size: 24px;&quot;&gt;收集與整理資料&lt;/font&gt;" style="rounded=1;whiteSpace=wrap;html=1;" parent="1" vertex="1">
          <mxGeometry x="270" y="200" width="236" height="60" as="geometry" />
        </mxCell>
        <mxCell id="7f0Ti8RrvrPzGYqnDvZj-4" style="edgeStyle=orthogonalEdgeStyle;rounded=0;orthogonalLoop=1;jettySize=auto;html=1;strokeWidth=6;" edge="1" parent="1" source="Ffa4UPVfKfl7aQGAIxgg-4" target="Ffa4UPVfKfl7aQGAIxgg-5">
          <mxGeometry relative="1" as="geometry" />
        </mxCell>
        <mxCell id="Ffa4UPVfKfl7aQGAIxgg-4" value="&lt;span style=&quot;font-size: 24px;&quot;&gt;數據探勘分析&lt;/span&gt;" style="rounded=1;whiteSpace=wrap;html=1;" parent="1" vertex="1">
          <mxGeometry x="270" y="300" width="236" height="60" as="geometry" />
        </mxCell>
        <mxCell id="7f0Ti8RrvrPzGYqnDvZj-5" style="edgeStyle=orthogonalEdgeStyle;rounded=0;orthogonalLoop=1;jettySize=auto;html=1;strokeWidth=6;" edge="1" parent="1" source="Ffa4UPVfKfl7aQGAIxgg-5" target="Ffa4UPVfKfl7aQGAIxgg-6">
          <mxGeometry relative="1" as="geometry" />
        </mxCell>
        <mxCell id="Ffa4UPVfKfl7aQGAIxgg-5" value="&lt;span style=&quot;font-size: 24px;&quot;&gt;結果探討&lt;/span&gt;" style="rounded=1;whiteSpace=wrap;html=1;" parent="1" vertex="1">
          <mxGeometry x="270" y="400" width="236" height="60" as="geometry" />
        </mxCell>
        <mxCell id="Ffa4UPVfKfl7aQGAIxgg-6" value="&lt;span style=&quot;font-size: 24px;&quot;&gt;結論建議&lt;/span&gt;" style="rounded=1;whiteSpace=wrap;html=1;" parent="1" vertex="1">
          <mxGeometry x="270" y="500" width="236" height="60" as="geometry" />
        </mxCell>
      </root>
    </mxGraphModel>
  </diagram>
</mxfile>
